<?xml version="1.0" encoding="UTF-8" standalone="no"?>
<svg width="120px" height="112px" viewBox="0 0 120 112" version="1.1" xmlns="http://www.w3.org/2000/svg" xmlns:xlink="http://www.w3.org/1999/xlink" xmlns:sketch="http://www.bohemiancoding.com/sketch/ns">
    <!-- Generator: Sketch 3.2.2 (9983) - http://www.bohemiancoding.com/sketch -->
    <title>09 Linkedin</title>
    <desc>Created with Sketch.</desc>
    <defs></defs>
    <g id="Welcome" stroke="none" stroke-width="1" fill="none" fill-rule="evenodd" sketch:type="MSPage">
        <g id="Desktop-HD-Normal" sketch:type="MSArtboardGroup" transform="translate(-1067.000000, -675.000000)" fill="#9C27B0">
            <path d="M1070.14136,711.235043 L1093.70157,711.235043 L1093.70157,786.5 L1070.14136,786.5 L1070.14136,711.235043 Z M1081.21874,701.747863 L1081.04757,701.747863 C1072.52694,701.747863 1067,695.964261 1067,688.637678 C1067,681.165044 1072.69297,675.5 1081.38477,675.5 C1090.07143,675.5 1095.41522,681.151298 1095.58639,688.617059 C1095.58639,695.947079 1090.07143,701.747863 1081.21874,701.747863 L1081.21874,701.747863 Z M1187,786.5 L1160.52432,786.5 L1160.52432,747.437384 C1160.52432,737.212699 1156.38888,730.235089 1147.278,730.235089 C1140.31206,730.235089 1136.44303,734.942833 1134.63749,739.48428 C1133.96211,741.109532 1134.06562,743.379398 1134.06562,745.654408 L1134.06562,786.5 L1107.8377,786.5 C1107.8377,786.5 1108.17878,717.305081 1107.8377,711.013231 L1134.06562,711.013231 L1134.06562,722.859738 C1135.61662,717.680534 1143.99442,710.286325 1157.3748,710.286325 C1173.9641,710.286325 1187,721.147052 1187,744.524618 L1187,786.5 L1187,786.5 Z" id="09-Linkedin" sketch:type="MSShapeGroup"></path>
        </g>
    </g>
</svg>