<?xml version="1.0" encoding="UTF-8" standalone="no"?>
<svg width="112px" height="96px" viewBox="0 0 112 96" version="1.1" xmlns="http://www.w3.org/2000/svg" xmlns:xlink="http://www.w3.org/1999/xlink" xmlns:sketch="http://www.bohemiancoding.com/sketch/ns">
    <!-- Generator: Sketch 3.2.2 (9983) - http://www.bohemiancoding.com/sketch -->
    <title>01 Twitter</title>
    <desc>Created with Sketch.</desc>
    <defs></defs>
    <g id="Welcome" stroke="none" stroke-width="1" fill="none" fill-rule="evenodd" sketch:type="MSPage">
        <g id="Desktop-HD-Normal" sketch:type="MSArtboardGroup" transform="translate(-775.000000, -692.000000)" fill="#9C27B0">
            <path d="M887,703.365366 C882.883238,705.291614 878.44968,706.594713 873.805453,707.179437 C878.552639,704.180638 882.195791,699.434349 883.906489,693.777561 C879.465011,696.552495 874.553092,698.567287 869.31012,699.651532 C865.128415,694.941997 859.152062,692 852.538949,692 C839.857612,692 829.568083,702.85415 829.568083,716.232637 C829.568083,718.135496 829.764496,719.979883 830.160491,721.750761 C811.064038,720.740024 794.137636,711.10043 782.79793,696.427197 C780.81954,700.019073 779.686994,704.180638 779.686994,708.62287 C779.686994,717.022849 783.743565,724.443833 789.909996,728.794181 C786.144878,728.672224 782.598348,727.571272 779.496917,725.76698 L779.496917,726.066025 C779.496917,737.812297 787.415229,747.60726 797.934435,749.827541 C796.005148,750.39723 793.977655,750.681238 791.877298,750.681238 C790.397862,750.681238 788.953273,750.535893 787.557787,750.251884 C790.478645,759.876442 798.962437,766.888119 809.019121,767.07356 C801.154664,773.577363 791.24529,777.449907 780.482152,777.449907 C778.627312,777.449907 776.794648,777.342986 775,777.115779 C785.169146,783.985452 797.248572,788 810.222945,788 C852.494597,788 875.600102,751.07718 875.600102,719.047665 C875.600102,717.993491 875.57951,716.944329 875.538327,715.911874 C880.028908,712.492073 883.928664,708.223587 887,703.365366" id="01-Twitter" sketch:type="MSShapeGroup"></path>
        </g>
    </g>
</svg>